PathFileType	4	(X/Y/Z)	 0.11m3min.trc
DataRate	CameraRate	NumFrames	NumMarkers	Units	OrigDataRate	OrigDataStartFrame	OrigNumFrames
200	200	10	39	m	200	876	1000
Frame#	Time	C7			LSH			RSH			MAN			RASI			LASI			HIPR			HIPL			RPSI			LPSI			COX			RTHI1			RTHI2			RTHI3			RTHI4			RLKN			RMKN			RSHA1			RSHA2			RSHA3			RSHA4			RHEEL			RMET5			RMET1			RTOE			LTHI1			LTHI2			LTHI3			LTHI4			LLKN			LMKN			LSHA1			LSHA2			LSHA3			LSHA4			LHEEL			LMET5			LMET1			LTOE			
		X1	Y1	Z1	X2	Y2	Z2	X3	Y3	Z3	X4	Y4	Z4	X5	Y5	Z5	X6	Y6	Z6	X7	Y7	Z7	X8	Y8	Z8	X9	Y9	Z9	X10	Y10	Z10	X11	Y11	Z11	X12	Y12	Z12	X13	Y13	Z13	X14	Y14	Z14	X15	Y15	Z15	X16	Y16	Z16	X17	Y17	Z17	X18	Y18	Z18	X19	Y19	Z19	X20	Y20	Z20	X21	Y21	Z21	X22	Y22	Z22	X23	Y23	Z23	X24	Y24	Z24	X25	Y25	Z25	X26	Y26	Z26	X27	Y27	Z27	X28	Y28	Z28	X29	Y29	Z29	X30	Y30	Z30	X31	Y31	Z31	X32	Y32	Z32	X33	Y33	Z33	X34	Y34	Z34	X35	Y35	Z35	X36	Y36	Z36	X37	Y37	Z37	X38	Y38	Z38	X39	Y39	Z39	
876	4.3800	-0.263083	1.599656	-0.557074	-0.217044	1.597292	-0.740148	-0.251036	1.592656	-0.379308	-0.107983	1.561280	-0.555437	-0.107049	1.094543	-0.429280	-0.095992	1.095482	-0.674501	-0.175043	1.157858	-0.387804	-0.167382	1.163260	-0.716626	-0.276000	1.149593	-0.522444	-0.273092	1.149466	-0.585600	-0.273341	1.150844	-0.555973	-0.186869	0.870795	-0.347534	-0.181187	0.809562	-0.345784	-0.110079	0.824601	-0.345847	-0.122881	0.882828	-0.348142	-0.202906	0.599383	-0.367897	-0.154055	0.577966	-0.491621	-0.272797	0.361439	-0.371370	-0.282184	0.323152	-0.385121	-0.225229	0.309790	-0.367412	-0.218227	0.348361	-0.357568	-0.317029	0.193955	-0.445122	-0.199649	0.089469	-0.349557	-0.137952	0.097894	-0.407193	-0.113988	0.085514	-0.393682	-0.219204	0.849439	-0.737854	-0.208406	0.791021	-0.732095	-0.139503	0.804212	-0.752292	-0.158987	0.862882	-0.756082	-0.202681	0.579650	-0.722698	-0.173289	0.560249	-0.602866	-0.278415	0.341046	-0.710669	-0.284128	0.302402	-0.701389	-0.226207	0.294197	-0.722899	-0.228156	0.338030	-0.729753	-0.318010	0.185270	-0.651623	-0.188018	0.082986	-0.731789	-0.134048	0.098123	-0.675838	-0.110676	0.084544	-0.686377	
877	4.3850	-0.263521	1.600173	-0.556795	-0.217394	1.597652	-0.740055	-0.251527	1.592888	-0.378745	-0.108265	1.561706	-0.555070	-0.107809	1.094760	-0.429065	-0.096463	1.095794	-0.674219	-0.175833	1.157871	-0.387605	-0.167848	1.163399	-0.716528	-0.276816	1.149610	-0.522536	-0.273823	1.149582	-0.585702	-0.274123	1.150893	-0.556026	-0.187124	0.871286	-0.347349	-0.181402	0.810050	-0.345548	-0.110303	0.825132	-0.345946	-0.123153	0.883355	-0.348239	-0.203201	0.599864	-0.367639	-0.154732	0.578554	-0.491401	-0.273897	0.362278	-0.371254	-0.283330	0.323930	-0.385109	-0.226605	0.310411	-0.367460	-0.219453	0.348950	-0.357572	-0.318974	0.194718	-0.444896	-0.200836	0.090064	-0.350429	-0.139530	0.098934	-0.408392	-0.115475	0.086620	-0.395062	-0.218583	0.849787	-0.738476	-0.207771	0.791373	-0.732546	-0.138658	0.804675	-0.751961	-0.158174	0.863307	-0.755977	-0.202548	0.580265	-0.722697	-0.173515	0.560941	-0.602815	-0.279993	0.342168	-0.710254	-0.286027	0.303314	-0.700737	-0.228083	0.294954	-0.722352	-0.229780	0.338790	-0.729318	-0.320626	0.186162	-0.651485	-0.189631	0.084130	-0.730233	-0.136336	0.099626	-0.673702	-0.112778	0.086201	-0.683945	
878	4.3900	-0.263945	1.600461	-0.556514	-0.217717	1.597742	-0.739991	-0.252009	1.592866	-0.378168	-0.108571	1.561858	-0.554707	-0.108586	1.094762	-0.428849	-0.096929	1.095883	-0.673935	-0.176624	1.157678	-0.387427	-0.168303	1.163344	-0.716434	-0.277656	1.149340	-0.522633	-0.274577	1.149410	-0.585802	-0.274896	1.150646	-0.556068	-0.187390	0.871537	-0.347168	-0.181631	0.810311	-0.345312	-0.110544	0.825441	-0.345992	-0.123441	0.883647	-0.348293	-0.203412	0.600110	-0.367387	-0.155501	0.578896	-0.491235	-0.274902	0.362864	-0.371040	-0.284446	0.324470	-0.385025	-0.227897	0.310785	-0.367511	-0.220571	0.349294	-0.357588	-0.320934	0.195282	-0.444596	-0.201963	0.090435	-0.351356	-0.141129	0.099723	-0.409739	-0.116922	0.087432	-0.396632	-0.218010	0.849949	-0.739037	-0.207179	0.791539	-0.732977	-0.137884	0.804953	-0.751658	-0.157438	0.863557	-0.755865	-0.202327	0.580669	-0.722706	-0.173724	0.561409	-0.602761	-0.281513	0.343106	-0.709926	-0.287945	0.304635	-0.700291	-0.229902	0.295501	-0.721805	-0.231310	0.339324	-0.728896	-0.323312	0.186920	-0.651405	-0.191366	0.084957	-0.728572	-0.138749	0.100860	-0.671478	-0.115020	0.087564	-0.681367	
879	4.3950	-0.264352	1.600517	-0.556231	-0.218018	1.597573	-0.739946	-0.252477	1.592597	-0.377587	-0.108892	1.561732	-0.554349	-0.109391	1.094549	-0.428644	-0.097386	1.095756	-0.673654	-0.177421	1.157290	-0.387262	-0.168751	1.163094	-0.716332	-0.278515	1.148789	-0.522729	-0.275352	1.148961	-0.585892	-0.275713	1.150121	-0.556120	-0.187676	0.871536	-0.346985	-0.181871	0.810332	-0.345077	-0.110796	0.825503	-0.345971	-0.123742	0.883697	-0.348299	-0.203547	0.600139	-0.367110	-0.156330	0.578982	-0.491120	-0.275821	0.363223	-0.370741	-0.285536	0.324802	-0.384831	-0.229092	0.310908	-0.367568	-0.221584	0.349382	-0.357605	-0.322901	0.195670	-0.444227	-0.203077	0.090570	-0.352324	-0.142742	0.100229	-0.411177	-0.118376	0.087977	-0.398331	-0.217507	0.849925	-0.739524	-0.206656	0.791517	-0.733371	-0.137204	0.805047	-0.751392	-0.156801	0.863634	-0.755746	-0.202038	0.580857	-0.722721	-0.173944	0.561651	-0.602699	-0.282938	0.343844	-0.709713	-0.289696	0.305452	-0.700022	-0.231623	0.295841	-0.721263	-0.232719	0.339638	-0.728498	-0.326032	0.187534	-0.651384	-0.193208	0.085486	-0.726855	-0.141297	0.101772	-0.669185	-0.117397	0.088600	-0.678706	
880	4.4000	-0.264739	1.600340	-0.555949	-0.218298	1.597155	-0.739912	-0.252928	1.592096	-0.377005	-0.109217	1.561332	-0.553994	-0.110217	1.094128	-0.428449	-0.097833	1.095418	-0.673380	-0.178239	1.156683	-0.387112	-0.169205	1.162645	-0.716224	-0.279390	1.147967	-0.522819	-0.276150	1.148240	-0.585971	-0.276565	1.149333	-0.556175	-0.187975	0.871290	-0.346803	-0.182125	0.810104	-0.344846	-0.111060	0.825306	-0.345889	-0.124052	0.883499	-0.348255	-0.203603	0.599941	-0.366800	-0.157196	0.578806	-0.491039	-0.276662	0.363345	-0.370380	-0.286644	0.324977	-0.384529	-0.230196	0.310786	-0.367635	-0.222492	0.349225	-0.357629	-0.324876	0.195850	-0.443766	-0.204187	0.090450	-0.353321	-0.144380	0.100474	-0.412650	-0.119842	0.088198	-0.400121	-0.217088	0.849711	-0.739921	-0.206211	0.791304	-0.733720	-0.136632	0.804954	-0.751169	-0.156273	0.863526	-0.755619	-0.201695	0.580825	-0.722740	-0.174205	0.561662	-0.602622	-0.284259	0.344356	-0.709628	-0.291342	0.305987	-0.700000	-0.233219	0.295952	-0.720732	-0.233948	0.339723	-0.728106	-0.328766	0.188009	-0.651427	-0.195150	0.085739	-0.725127	-0.143973	0.102353	-0.666851	-0.119917	0.089320	-0.676014	
881	4.4050	-0.265111	1.599933	-0.555665	-0.218557	1.596484	-0.739876	-0.253359	1.591357	-0.376431	-0.109538	1.560663	-0.553641	-0.111068	1.093500	-0.428262	-0.098278	1.094869	-0.673116	-0.179079	1.155850	-0.386990	-0.169657	1.161991	-0.716105	-0.280276	1.146894	-0.522904	-0.276968	1.147260	-0.586036	-0.277417	1.148279	-0.556223	-0.188288	0.870779	-0.346618	-0.182386	0.809622	-0.344616	-0.111330	0.824872	-0.345755	-0.124374	0.883053	-0.348167	-0.203590	0.599505	-0.366449	-0.158076	0.578371	-0.490980	-0.277431	0.363247	-0.369965	-0.287751	0.324925	-0.384188	-0.231209	0.310436	-0.367703	-0.223291	0.348811	-0.357669	-0.326841	0.195853	-0.443265	-0.205299	0.090106	-0.354303	-0.146072	0.100433	-0.414147	-0.121371	0.088128	-0.401940	-0.216763	0.849295	-0.740226	-0.205854	0.790890	-0.734019	-0.136177	0.804656	-0.750997	-0.155861	0.863214	-0.755485	-0.201310	0.580561	-0.722764	-0.174515	0.561444	-0.602527	-0.285470	0.344642	-0.709656	-0.292944	0.306538	-0.700041	-0.234693	0.295841	-0.720216	-0.235010	0.339586	-0.727719	-0.331492	0.188332	-0.651535	-0.197185	0.085706	-0.723420	-0.146750	0.102582	-0.664518	-0.122571	0.089660	-0.673310	
882	4.4100	-0.265466	1.599295	-0.555380	-0.218804	1.595567	-0.739832	-0.253771	1.590386	-0.375866	-0.109837	1.559741	-0.553286	-0.111912	1.092656	-0.428059	-0.098721	1.094103	-0.672860	-0.179953	1.154807	-0.386888	-0.170116	1.161134	-0.715975	-0.281176	1.145598	-0.522985	-0.277798	1.146031	-0.586089	-0.278282	1.146985	-0.556263	-0.188616	0.870016	-0.346433	-0.182653	0.808879	-0.344388	-0.111605	0.824194	-0.345584	-0.124712	0.882356	-0.348045	-0.203537	0.598841	-0.366054	-0.158943	0.577695	-0.490929	-0.278144	0.362912	-0.369510	-0.288845	0.324635	-0.383822	-0.232146	0.309850	-0.367772	-0.223997	0.348159	-0.357718	-0.328806	0.195659	-0.442710	-0.206373	0.089583	-0.355183	-0.147820	0.100094	-0.415682	-0.122956	0.087753	-0.403768	-0.216536	0.848667	-0.740446	-0.205587	0.790262	-0.734263	-0.135840	0.804143	-0.750871	-0.155569	0.862689	-0.755351	-0.200893	0.580053	-0.722794	-0.174882	0.560989	-0.602418	-0.286585	0.344678	-0.709786	-0.294102	0.305745	-0.699652	-0.236055	0.295508	-0.719723	-0.235953	0.339220	-0.727358	-0.334196	0.188498	-0.651691	-0.199314	0.085389	-0.721760	-0.149627	0.102464	-0.662246	-0.125346	0.089632	-0.670672	
883	4.4150	-0.265800	1.598423	-0.555094	-0.219036	1.594411	-0.739772	-0.254163	1.589186	-0.375322	-0.110113	1.558575	-0.552924	-0.112767	1.091585	-0.427860	-0.099165	1.093121	-0.672616	-0.180858	1.153559	-0.386802	-0.170589	1.160074	-0.715829	-0.282082	1.144090	-0.523057	-0.278628	1.144570	-0.586134	-0.279159	1.145470	-0.556293	-0.188959	0.868989	-0.346245	-0.182919	0.807867	-0.344166	-0.111882	0.823264	-0.345390	-0.125069	0.881415	-0.347899	-0.203438	0.597935	-0.365649	-0.159785	0.576787	-0.490874	-0.278815	0.362344	-0.369036	-0.289929	0.324142	-0.383413	-0.233027	0.309025	-0.367848	-0.224637	0.347266	-0.357778	-0.330779	0.195290	-0.442133	-0.207503	0.088824	-0.356027	-0.149643	0.099448	-0.417160	-0.124657	0.087079	-0.405542	-0.216402	0.847810	-0.740592	-0.205408	0.789407	-0.734451	-0.135614	0.803402	-0.750783	-0.155393	0.861933	-0.755226	-0.200447	0.579283	-0.722828	-0.175293	0.560292	-0.602298	-0.287609	0.344468	-0.709992	-0.296067	0.306286	-0.700963	-0.237326	0.294930	-0.719252	-0.236803	0.338616	-0.727020	-0.336860	0.188496	-0.651882	-0.201547	0.084791	-0.720182	-0.152599	0.101994	-0.660058	-0.128245	0.089218	-0.668124	
884	4.4200	-0.266117	1.597318	-0.554807	-0.219256	1.593013	-0.739694	-0.254538	1.587760	-0.374797	-0.110368	1.557172	-0.552562	-0.113617	1.090297	-0.427644	-0.099626	1.091911	-0.672383	-0.181781	1.152116	-0.386739	-0.171075	1.158811	-0.715673	-0.282990	1.142392	-0.523123	-0.279461	1.142907	-0.586174	-0.280018	1.143749	-0.556307	-0.189308	0.867711	-0.346063	-0.183183	0.806595	-0.343955	-0.112161	0.822102	-0.345190	-0.125443	0.880227	-0.347738	-0.203284	0.596762	-0.365247	-0.160568	0.575646	-0.490811	-0.279452	0.361550	-0.368540	-0.291022	0.323412	-0.382990	-0.233874	0.307973	-0.367923	-0.225221	0.346147	-0.357863	-0.332767	0.194730	-0.441545	-0.208712	0.087851	-0.356780	-0.151551	0.098529	-0.418577	-0.126452	0.086085	-0.407230	-0.216360	0.846712	-0.740674	-0.205307	0.788313	-0.734583	-0.135487	0.802419	-0.750721	-0.155325	0.860928	-0.755115	-0.199973	0.578246	-0.722868	-0.175732	0.559349	-0.602170	-0.288561	0.344007	-0.710248	-0.297424	0.305808	-0.701227	-0.238526	0.294104	-0.718813	-0.237583	0.337758	-0.726704	-0.339476	0.188343	-0.652108	-0.203913	0.083883	-0.718697	-0.155664	0.101161	-0.657991	-0.131256	0.088403	-0.665714	
885	4.4250	-0.266416	1.595975	-0.554518	-0.219465	1.591374	-0.739595	-0.254900	1.586115	-0.374302	-0.110604	1.555536	-0.552198	-0.114464	1.088785	-0.427413	-0.100107	1.090470	-0.672161	-0.182743	1.150460	-0.386684	-0.171565	1.157352	-0.715510	-0.283900	1.140525	-0.523183	-0.280290	1.141059	-0.586215	-0.280879	1.141845	-0.556315	-0.189673	0.866169	-0.345889	-0.183436	0.805063	-0.343759	-0.112441	0.820690	-0.344991	-0.125834	0.878803	-0.347574	-0.203105	0.595352	-0.364868	-0.161280	0.574280	-0.490738	-0.280068	0.360521	-0.368015	-0.292091	0.322409	-0.382574	-0.234705	0.306693	-0.367997	-0.225765	0.344786	-0.357974	-0.334770	0.193978	-0.440954	-0.210018	0.086696	-0.357425	-0.153572	0.097264	-0.419882	-0.128356	0.084784	-0.408828	-0.216398	0.845359	-0.740708	-0.205279	0.786966	-0.734664	-0.135449	0.801175	-0.750668	-0.155353	0.859661	-0.755014	-0.199481	0.576933	-0.722915	-0.176166	0.558155	-0.602041	-0.289448	0.343295	-0.710528	-0.298517	0.305087	-0.701540	-0.239677	0.293034	-0.718407	-0.238333	0.336644	-0.726418	-0.342028	0.188031	-0.652347	-0.206391	0.082704	-0.717355	-0.158809	0.099923	-0.656058	-0.134370	0.087170	-0.663485	
